<svg width="60" height="60" viewBox="0 0 60 60" fill="none" xmlns="http://www.w3.org/2000/svg">
<path d="M30 60C13.4857 60 0 46.6286 0 30C0 13.3714 13.3714 0 30 0C46.6286 0 60 13.3714 60 30C60 46.6286 46.6286 60 30 60ZM30 4.22857C15.8286 4.22857 4.22857 15.8286 4.22857 30C4.22857 44.1714 15.8286 55.7714 30 55.7714C44.1714 55.7714 55.8857 44.1714 55.8857 30C55.8857 15.8286 44.2857 4.22857 30 4.22857Z" fill="#4E0A77"/>
<path d="M42.17 13H17.83C16.8193 13 16 13.8193 16 14.83V18.17C16 19.1807 16.8193 20 17.83 20H42.17C43.1807 20 44 19.1807 44 18.17V14.83C44 13.8193 43.1807 13 42.17 13Z" fill="#4E0A77"/>
<path d="M43 27H19.175C18.8634 27 18.5645 26.8762 18.3441 26.6559C18.1238 26.4355 18 26.1366 18 25.825V23C18 22.7348 17.8946 22.4804 17.7071 22.2929C17.5196 22.1054 17.2652 22 17 22C16.7348 22 16.4804 22.1054 16.2929 22.2929C16.1054 22.4804 16 22.7348 16 23V25.825C16.0013 26.6667 16.3363 27.4735 16.9314 28.0686C17.5265 28.6637 18.3333 28.9987 19.175 29H43C43.2652 29 43.5196 28.8946 43.7071 28.7071C43.8946 28.5196 44 28.2652 44 28C44 27.7348 43.8946 27.4804 43.7071 27.2929C43.5196 27.1054 43.2652 27 43 27Z" fill="#4E0A77"/>
<path d="M43 23H21C20.7348 23 20.4804 23.1054 20.2929 23.2929C20.1054 23.4804 20 23.7348 20 24C20 24.2652 20.1054 24.5196 20.2929 24.7071C20.4804 24.8946 20.7348 25 21 25H43C43.2652 25 43.5196 24.8946 43.7071 24.7071C43.8946 24.5196 44 24.2652 44 24C44 23.7348 43.8946 23.4804 43.7071 23.2929C43.5196 23.1054 43.2652 23 43 23Z" fill="#4E0A77"/>
<path d="M42.17 32H17.83C16.8193 32 16 32.8193 16 33.83V37.17C16 38.1807 16.8193 39 17.83 39H42.17C43.1807 39 44 38.1807 44 37.17V33.83C44 32.8193 43.1807 32 42.17 32Z" fill="#4E0A77"/>
<path d="M43 46H19.175C18.8634 46 18.5645 45.8762 18.3441 45.6559C18.1238 45.4355 18 45.1366 18 44.825V42C18 41.7348 17.8946 41.4804 17.7071 41.2929C17.5196 41.1054 17.2652 41 17 41C16.7348 41 16.4804 41.1054 16.2929 41.2929C16.1054 41.4804 16 41.7348 16 42V44.825C16.0013 45.6667 16.3363 46.4735 16.9314 47.0686C17.5265 47.6637 18.3333 47.9987 19.175 48H43C43.2652 48 43.5196 47.8946 43.7071 47.7071C43.8946 47.5196 44 47.2652 44 47C44 46.7348 43.8946 46.4804 43.7071 46.2929C43.5196 46.1054 43.2652 46 43 46Z" fill="#4E0A77"/>
<path d="M43 42H21C20.7348 42 20.4804 42.1054 20.2929 42.2929C20.1054 42.4804 20 42.7348 20 43C20 43.2652 20.1054 43.5196 20.2929 43.7071C20.4804 43.8946 20.7348 44 21 44H43C43.2652 44 43.5196 43.8946 43.7071 43.7071C43.8946 43.5196 44 43.2652 44 43C44 42.7348 43.8946 42.4804 43.7071 42.2929C43.5196 42.1054 43.2652 42 43 42Z" fill="#4E0A77"/>
</svg>
