<svg width="1362" height="569" viewBox="0 0 1362 569" fill="none" xmlns="http://www.w3.org/2000/svg">
<path d="M0 480.662V387.337L213.702 81.6627H342.869V380.574H398.323V480.662H342.869V568.578H227.227V480.662H0ZM235.342 208.802L121.729 380.574H235.342V208.802Z" fill="#6AE5CC"/>
<path d="M454.966 314.976C454.966 237.43 469.844 176.341 499.6 131.707C504.964 123.781 510.903 116.56 517.418 110.042C547.594 79.8512 590.121 64.7559 644.999 64.7559C711.724 64.7559 759.965 87.0728 789.721 131.707C819.927 176.341 835.031 237.43 835.031 314.976C835.031 393.424 819.927 454.964 789.721 499.598C784.302 507.727 778.27 515.115 771.624 521.763C741.781 551.62 699.572 566.549 644.999 566.549C578.273 566.549 529.807 544.232 499.6 499.598C469.844 454.964 454.966 393.424 454.966 314.976ZM721.417 314.976C721.417 269.441 716.458 234.5 706.539 210.154C696.621 185.358 676.107 172.959 644.999 172.959C623.96 172.959 607.767 178.63 596.42 189.972C590.989 195.4 586.668 202.128 583.458 210.154C573.539 234.5 568.58 269.441 568.58 314.976C568.58 345.634 570.383 371.107 573.99 391.395C577.597 411.232 584.81 427.462 595.631 440.086C606.902 452.259 623.358 458.346 644.999 458.346C666.639 458.346 682.87 452.259 693.69 440.086C704.961 427.462 712.4 411.232 716.007 391.395C719.614 371.107 721.417 345.634 721.417 314.976Z" fill="#6AE5CC"/>
<path d="M898.833 480.662V387.337L1112.53 81.6627H1241.7V380.574H1297.16V480.662H1241.7V568.578H1126.06V480.662H898.833ZM1134.17 208.802L1020.56 380.574H1134.17V208.802Z" fill="#6AE5CC"/>
<path d="M1306.46 16.9072H1177.29L1112.54 81.6629H1241.71L1306.46 16.9072Z" fill="#6AE5CC"/>
<path d="M1306.46 315.819V16.9072L1241.71 81.6629V380.575L1306.46 315.819Z" fill="#6AE5CC"/>
<path d="M1361.92 315.818H1306.46L1241.71 380.574H1297.16L1361.92 315.818Z" fill="#6AE5CC"/>
<path d="M1361.91 415.906V315.818L1297.16 380.574V480.662L1361.91 415.906Z" fill="#6AE5CC"/>
<path d="M1198.93 144.045V315.818L1134.18 380.573V208.801L1198.93 144.045Z" fill="#6AE5CC"/>
<path d="M1306.46 415.907H1361.92L1297.16 480.663H1241.71L1306.46 415.907Z" fill="#6AE5CC"/>
<path d="M1085.32 315.818L1198.94 144.045L1134.18 208.801L1020.57 380.573L1085.32 315.818Z" fill="#6AE5CC"/>
<path d="M1177.29 16.9072L963.588 322.582L898.832 387.337L1112.53 81.6629L1177.29 16.9072Z" fill="#6AE5CC"/>
<path d="M1306.46 503.822V415.907L1241.71 480.663V568.578L1306.46 503.822Z" fill="#6AE5CC"/>
<path d="M1198.94 315.818H1085.32L1020.57 380.574H1134.18L1198.94 315.818Z" fill="#6AE5CC"/>
<path d="M854.48 66.9508C824.724 22.3169 776.483 0 709.758 0L645.002 64.7557C711.727 64.7557 759.968 87.0726 789.724 131.707L854.48 66.9508Z" fill="#6AE5CC"/>
<path d="M1190.82 503.82H1306.46L1241.7 568.576H1126.06L1190.82 503.82Z" fill="#6AE5CC"/>
<path d="M1190.82 415.907V503.822L1126.06 568.578V480.663L1190.82 415.907Z" fill="#6AE5CC"/>
<path d="M899.786 250.22C899.786 172.674 884.683 111.584 854.476 66.9502L789.721 131.706C819.927 176.34 835.031 237.43 835.031 314.975L899.786 250.22Z" fill="#6AE5CC"/>
<path d="M963.588 415.907H1190.81L1126.06 480.663H898.832L963.588 415.907Z" fill="#6AE5CC"/>
<path d="M709.758 0C654.881 0 612.354 15.0953 582.178 45.286L517.47 109.994C547.643 79.835 590.154 64.7557 645.003 64.7557L709.758 0Z" fill="#6AE5CC"/>
<path d="M709.758 108.203C740.866 108.203 761.38 120.601 771.298 145.398L706.543 210.154C696.624 185.357 676.11 172.959 645.002 172.959L709.758 108.203Z" fill="#6AE5CC"/>
<path d="M963.588 322.581V415.906L898.832 480.662V387.337L963.588 322.581Z" fill="#6AE5CC"/>
<path d="M771.297 145.398C781.215 169.744 786.175 204.685 786.175 250.22L721.419 314.976C721.419 269.441 716.46 234.5 706.541 210.154L771.297 145.398Z" fill="#6AE5CC"/>
<path d="M661.179 125.216C672.526 113.874 688.719 108.203 709.758 108.203L645.003 172.959C623.964 172.959 607.771 178.63 596.424 189.972L661.179 125.216Z" fill="#6AE5CC"/>
<path d="M854.476 434.841C884.683 390.207 899.786 328.666 899.786 250.219L835.031 314.974C835.031 393.422 819.927 454.962 789.721 499.596L854.476 434.841Z" fill="#6AE5CC"/>
<path d="M648.215 145.398C651.422 137.379 655.737 130.657 661.161 125.232L596.421 189.971C590.99 195.4 586.67 202.127 583.459 210.154L648.215 145.398Z" fill="#6AE5CC"/>
<path d="M582.177 45.2871C575.662 51.8051 569.723 59.0267 564.359 66.9519L499.604 131.708C504.967 123.782 510.906 116.561 517.421 110.043L582.177 45.2871Z" fill="#6AE5CC"/>
<path d="M786.178 250.219C786.178 280.876 784.374 306.349 780.767 326.637L716.012 391.393C719.618 371.105 721.422 345.632 721.422 314.974L786.178 250.219Z" fill="#6AE5CC"/>
<path d="M633.336 250.22C633.336 204.685 638.295 169.744 648.214 145.398L583.458 210.154C573.539 234.5 568.58 269.441 568.58 314.976L633.336 250.22Z" fill="#6AE5CC"/>
<path d="M780.766 326.64C777.159 346.477 769.72 362.707 758.449 375.331L693.693 440.087C704.965 427.463 712.404 411.233 716.01 391.395L780.766 326.64Z" fill="#6AE5CC"/>
<path d="M836.385 457.006C843.03 450.358 849.062 442.969 854.481 434.841L789.725 499.596C784.306 507.725 778.274 515.113 771.629 521.761L836.385 457.006Z" fill="#6AE5CC"/>
<path d="M564.36 66.9502C534.604 111.584 519.726 172.674 519.726 250.22L454.971 314.975C454.971 237.43 469.849 176.34 499.605 131.706L564.36 66.9502Z" fill="#6AE5CC"/>
<path d="M709.758 393.589C728.852 393.589 743.735 388.851 754.406 379.374L758.449 375.33C757.176 376.762 755.828 378.11 754.406 379.374L693.693 440.086C682.873 452.259 666.643 458.345 645.002 458.345L709.758 393.589Z" fill="#6AE5CC"/>
<path d="M638.746 326.637C635.139 306.349 633.336 280.876 633.336 250.219L568.58 314.974C568.58 345.632 570.383 371.105 573.99 391.393L638.746 326.637Z" fill="#6AE5CC"/>
<path d="M407.629 16.9072H278.461L213.705 81.6629H342.873L407.629 16.9072Z" fill="#6AE5CC"/>
<path d="M709.758 393.589C688.118 393.589 671.662 387.503 660.39 375.33L595.635 440.086C606.906 452.259 623.362 458.345 645.003 458.345L709.758 393.589Z" fill="#6AE5CC"/>
<path d="M660.388 375.331C649.568 362.707 642.355 346.477 638.748 326.64L573.992 391.395C577.599 411.233 584.812 427.463 595.633 440.087L660.388 375.331Z" fill="#6AE5CC"/>
<path d="M709.758 501.793C764.304 501.793 806.498 486.879 836.338 457.052L771.628 521.762C741.784 551.62 699.576 566.548 645.002 566.548L709.758 501.793Z" fill="#6AE5CC"/>
<path d="M407.629 315.819V16.9072L342.873 81.6629V380.575L407.629 315.819Z" fill="#6AE5CC"/>
<path d="M519.726 250.219C519.726 328.666 534.604 390.207 564.36 434.841L499.605 499.596C469.849 454.962 454.971 393.422 454.971 314.974L519.726 250.219Z" fill="#6AE5CC"/>
<path d="M564.359 434.841C594.566 479.475 643.032 501.792 709.757 501.792L645.002 566.547C578.276 566.547 529.81 544.23 499.604 499.596L564.359 434.841Z" fill="#6AE5CC"/>
<path d="M463.083 315.818H407.629L342.873 380.574H398.327L463.083 315.818Z" fill="#6AE5CC"/>
<path d="M463.082 415.906V315.818L398.326 380.574V480.662L463.082 415.906Z" fill="#6AE5CC"/>
<path d="M300.099 144.045V315.818L235.344 380.573V208.801L300.099 144.045Z" fill="#6AE5CC"/>
<path d="M407.629 415.907H463.083L398.327 480.663H342.873L407.629 415.907Z" fill="#6AE5CC"/>
<path d="M186.488 315.818L300.102 144.045L235.346 208.801L121.732 380.573L186.488 315.818Z" fill="#6AE5CC"/>
<path d="M278.457 16.9072L64.7557 322.582L0 387.337L213.702 81.6629L278.457 16.9072Z" fill="#6AE5CC"/>
<path d="M407.629 503.822V415.907L342.873 480.663V568.578L407.629 503.822Z" fill="#6AE5CC"/>
<path d="M300.102 315.818H186.488L121.732 380.574H235.346L300.102 315.818Z" fill="#6AE5CC"/>
<path d="M291.986 503.82H407.628L342.873 568.576H227.23L291.986 503.82Z" fill="#6AE5CC"/>
<path d="M291.986 415.907V503.822L227.23 568.578V480.663L291.986 415.907Z" fill="#6AE5CC"/>
<path d="M64.7557 415.907H291.983L227.227 480.663H0L64.7557 415.907Z" fill="#6AE5CC"/>
<path d="M64.7557 322.581V415.906L0 480.662V387.337L64.7557 322.581Z" fill="#6AE5CC"/>
<path d="M64.7578 415.907V322.581L278.459 16.9068H407.627V315.819H463.081V415.907H407.627V503.822H291.985V415.907H64.7578ZM300.1 144.046L186.487 315.819H300.1V144.046Z" fill="white"/>
<path d="M519.724 250.22C519.724 172.675 534.602 111.585 564.358 66.9508C594.565 22.3169 643.031 0 709.756 0C776.482 0 824.722 22.3169 854.478 66.9508C884.685 111.585 899.788 172.675 899.788 250.22C899.788 328.668 884.685 390.208 854.478 434.842C824.722 479.476 776.482 501.793 709.756 501.793C643.031 501.793 594.565 479.476 564.358 434.842C534.602 390.208 519.724 328.668 519.724 250.22ZM786.175 250.22C786.175 204.685 781.216 169.744 771.297 145.398C761.378 120.602 740.865 108.203 709.756 108.203C678.648 108.203 658.134 120.602 648.216 145.398C638.297 169.744 633.338 204.685 633.338 250.22C633.338 280.878 635.141 306.351 638.748 326.639C642.355 346.476 649.568 362.707 660.389 375.33C671.66 387.503 688.116 393.59 709.756 393.59C731.397 393.59 747.627 387.503 758.448 375.33C769.719 362.707 777.158 346.476 780.765 326.639C784.372 306.351 786.175 280.878 786.175 250.22Z" fill="white"/>
<path d="M963.59 415.907V322.581L1177.29 16.9068H1306.46V315.819H1361.91V415.907H1306.46V503.822H1190.82V415.907H963.59ZM1198.93 144.046L1085.32 315.819H1198.93V144.046Z" fill="white"/>
</svg>
