<svg width="1269" height="552" viewBox="0 0 1269 552" fill="none" xmlns="http://www.w3.org/2000/svg">
<path d="M315.254 167.171H108.599V258.576C117.43 248.862 129.794 240.914 145.691 234.732C161.587 228.55 178.808 225.459 197.354 225.459C230.472 225.459 257.85 232.965 279.486 247.979C301.565 262.992 317.682 282.421 327.838 306.266C337.995 330.111 343.073 355.943 343.073 383.762C343.073 435.425 328.501 476.491 299.357 506.96C270.214 536.987 229.147 552 176.159 552C140.833 552 110.144 546.039 84.0916 534.116C58.0389 521.752 37.9475 504.752 23.8172 483.115C9.68696 461.478 1.95948 436.529 0.634766 408.269H111.248C113.898 421.957 120.3 433.438 130.456 442.711C140.613 451.543 154.522 455.958 172.185 455.958C190.244 455.958 204.291 450.943 214.325 440.913C215.823 439.416 217.231 437.808 218.55 436.088C228.706 422.841 233.784 405.178 233.784 383.099C233.784 361.462 228.485 344.903 217.887 333.423C207.29 321.942 191.835 316.201 171.523 316.201C156.509 316.201 144.145 319.955 134.431 327.461C132.193 329.089 130.13 330.846 128.244 332.731C121.942 339.03 117.601 346.767 115.222 355.943H5.93361V67.8179H315.254V167.171Z" fill="#6AE5CC"/>
<path d="M405.593 303.617C405.593 227.666 420.165 167.834 449.308 124.118C454.561 116.356 460.378 109.283 466.759 102.899C496.315 73.3297 537.966 58.5449 591.715 58.5449C657.067 58.5449 704.315 80.4027 733.459 124.118C763.044 167.834 777.837 227.666 777.837 303.617C777.837 380.45 763.044 440.724 733.459 484.44C728.151 492.401 722.243 499.637 715.735 506.149C686.506 535.391 645.166 550.013 591.715 550.013C526.362 550.013 478.894 528.155 449.308 484.44C420.165 440.724 405.593 380.45 405.593 303.617ZM666.561 303.617C666.561 259.018 661.704 224.796 651.989 200.951C642.275 176.665 622.183 164.522 591.715 164.522C571.109 164.522 555.249 170.076 544.136 181.185C538.817 186.501 534.585 193.09 531.44 200.951C521.726 224.796 516.869 259.018 516.869 303.617C516.869 333.643 518.635 358.592 522.167 378.463C525.7 397.892 532.765 413.788 543.363 426.152C554.402 438.075 570.519 444.036 591.715 444.036C612.91 444.036 628.807 438.075 639.404 426.152C650.444 413.788 657.73 397.892 661.262 378.463C664.795 358.592 666.561 333.643 666.561 303.617Z" fill="#6AE5CC"/>
<path d="M837.676 303.617C837.676 227.666 852.248 167.834 881.392 124.118C886.645 116.356 892.462 109.283 898.843 102.899C928.398 73.3297 970.05 58.5449 1023.8 58.5449C1089.15 58.5449 1136.4 80.4027 1165.54 124.118C1195.13 167.834 1209.92 227.666 1209.92 303.617C1209.92 380.45 1195.13 440.724 1165.54 484.44C1160.24 492.401 1154.33 499.637 1147.82 506.149C1118.59 535.391 1077.25 550.013 1023.8 550.013C958.446 550.013 910.977 528.155 881.392 484.44C852.248 440.724 837.676 380.45 837.676 303.617ZM1098.64 303.617C1098.64 259.018 1093.79 224.796 1084.07 200.951C1074.36 176.665 1054.27 164.522 1023.8 164.522C1003.19 164.522 987.333 170.076 976.219 181.185C970.9 186.501 966.669 193.09 963.524 200.951C953.809 224.796 948.952 259.018 948.952 303.617C948.952 333.643 950.718 358.592 954.251 378.463C957.784 397.892 964.849 413.788 975.446 426.152C986.486 438.075 1002.6 444.036 1023.8 444.036C1044.99 444.036 1060.89 438.075 1071.49 426.152C1082.53 413.788 1089.81 397.892 1093.35 378.463C1096.88 358.592 1098.64 333.643 1098.64 303.617Z" fill="#6AE5CC"/>
<path d="M1224.09 65.5732C1194.94 21.8577 1147.69 0 1082.34 0L1023.8 58.5445C1089.15 58.5445 1136.4 80.4023 1165.54 124.118L1224.09 65.5732Z" fill="#6AE5CC"/>
<path d="M1268.47 245.071C1268.47 169.121 1253.67 109.288 1224.09 65.5723L1165.54 124.117C1195.13 167.832 1209.92 227.665 1209.92 303.615L1268.47 245.071Z" fill="#6AE5CC"/>
<path d="M1082.34 0C1028.6 0 986.944 14.7847 957.388 44.3542L898.891 102.852C928.443 73.3136 970.079 58.5445 1023.8 58.5445L1082.34 0Z" fill="#6AE5CC"/>
<path d="M1082.34 105.978C1112.81 105.978 1132.9 118.121 1142.62 142.407L1084.07 200.952C1074.36 176.665 1054.27 164.522 1023.8 164.522L1082.34 105.978Z" fill="#6AE5CC"/>
<path d="M1142.62 142.406C1152.34 166.251 1157.19 200.473 1157.19 245.071L1098.65 303.616C1098.65 259.017 1093.79 224.796 1084.08 200.951L1142.62 142.406Z" fill="#6AE5CC"/>
<path d="M1034.76 122.64C1045.88 111.532 1061.74 105.978 1082.34 105.978L1023.8 164.522C1003.19 164.522 987.332 170.076 976.219 181.185L1034.76 122.64Z" fill="#6AE5CC"/>
<path d="M1224.09 425.893C1253.67 382.178 1268.47 321.904 1268.47 245.07L1209.92 303.615C1209.92 380.448 1195.13 440.722 1165.54 484.438L1224.09 425.893Z" fill="#6AE5CC"/>
<path d="M1022.07 142.406C1025.21 134.553 1029.44 127.969 1034.75 122.655L976.219 181.184C970.9 186.501 966.668 193.09 963.523 200.951L1022.07 142.406Z" fill="#6AE5CC"/>
<path d="M957.39 44.3555C951.009 50.7394 945.192 57.8124 939.939 65.5745L881.395 124.119C886.648 116.357 892.465 109.284 898.846 102.9L957.39 44.3555Z" fill="#6AE5CC"/>
<path d="M1157.19 245.07C1157.19 275.097 1155.43 300.046 1151.9 319.916L1093.35 378.461C1096.88 358.59 1098.65 333.642 1098.65 303.615L1157.19 245.07Z" fill="#6AE5CC"/>
<path d="M1007.5 245.071C1007.5 200.473 1012.35 166.251 1022.07 142.406L963.525 200.951C953.81 224.796 948.953 259.017 948.953 303.616L1007.5 245.071Z" fill="#6AE5CC"/>
<path d="M1151.89 319.919C1148.36 339.348 1141.08 355.245 1130.04 367.609L1071.49 426.153C1082.53 413.789 1089.82 397.893 1093.35 378.463L1151.89 319.919Z" fill="#6AE5CC"/>
<path d="M1206.36 447.602C1212.87 441.091 1218.78 433.855 1224.09 425.894L1165.54 484.438C1160.24 492.399 1154.33 499.636 1147.82 506.147L1206.36 447.602Z" fill="#6AE5CC"/>
<path d="M939.94 65.5723C910.796 109.288 896.224 169.121 896.224 245.071L837.68 303.615C837.68 227.665 852.251 167.832 881.395 124.117L939.94 65.5723Z" fill="#6AE5CC"/>
<path d="M1082.34 385.49C1101.04 385.49 1115.62 380.849 1126.07 371.567L1130.03 367.606C1128.78 369.009 1127.46 370.329 1126.07 371.567L1071.49 426.151C1060.89 438.073 1044.99 444.035 1023.8 444.035L1082.34 385.49Z" fill="#6AE5CC"/>
<path d="M1012.8 319.916C1009.26 300.046 1007.5 275.097 1007.5 245.07L948.953 303.615C948.953 333.642 950.719 358.59 954.252 378.461L1012.8 319.916Z" fill="#6AE5CC"/>
<path d="M792 65.5732C762.856 21.8577 715.608 0 650.255 0L591.711 58.5445C657.063 58.5445 704.311 80.4023 733.455 124.118L792 65.5732Z" fill="#6AE5CC"/>
<path d="M1082.35 385.49C1061.15 385.49 1045.03 379.529 1033.99 367.606L975.449 426.151C986.488 438.073 1002.61 444.035 1023.8 444.035L1082.35 385.49Z" fill="#6AE5CC"/>
<path d="M1033.99 367.609C1023.4 355.245 1016.33 339.348 1012.8 319.919L954.254 378.463C957.786 397.893 964.852 413.789 975.449 426.153L1033.99 367.609Z" fill="#6AE5CC"/>
<path d="M1082.34 491.468C1135.77 491.468 1177.09 476.861 1206.32 447.648L1147.82 506.148C1118.59 535.391 1077.25 550.012 1023.8 550.012L1082.34 491.468Z" fill="#6AE5CC"/>
<path d="M836.383 245.071C836.383 169.121 821.591 109.288 792.005 65.5723L733.461 124.117C763.046 167.832 777.839 227.665 777.839 303.615L836.383 245.071Z" fill="#6AE5CC"/>
<path d="M896.224 245.07C896.224 321.904 910.796 382.178 939.94 425.893L881.395 484.438C852.251 440.722 837.68 380.448 837.68 303.615L896.224 245.07Z" fill="#6AE5CC"/>
<path d="M650.258 0C596.509 0 554.858 14.7847 525.302 44.3542L466.805 102.852C496.357 73.3136 537.993 58.5445 591.713 58.5445L650.258 0Z" fill="#6AE5CC"/>
<path d="M650.255 105.978C680.724 105.978 700.815 118.121 710.53 142.407L651.985 200.952C642.271 176.665 622.179 164.522 591.711 164.522L650.255 105.978Z" fill="#6AE5CC"/>
<path d="M939.939 425.894C969.524 469.609 1016.99 491.467 1082.35 491.467L1023.8 550.011C958.449 550.011 910.98 528.154 881.395 484.438L939.939 425.894Z" fill="#6AE5CC"/>
<path d="M710.537 142.406C720.251 166.251 725.109 200.473 725.109 245.071L666.564 303.616C666.564 259.017 661.707 224.796 651.992 200.951L710.537 142.406Z" fill="#6AE5CC"/>
<path d="M602.681 122.64C613.795 111.532 629.654 105.978 650.261 105.978L591.716 164.522C571.11 164.522 555.25 170.076 544.137 181.185L602.681 122.64Z" fill="#6AE5CC"/>
<path d="M792.005 425.893C821.591 382.178 836.383 321.904 836.383 245.07L777.839 303.615C777.839 380.448 763.046 440.722 733.461 484.438L792.005 425.893Z" fill="#6AE5CC"/>
<path d="M589.986 142.406C593.127 134.553 597.354 127.969 602.665 122.655L544.137 181.184C538.818 186.501 534.586 193.09 531.441 200.951L589.986 142.406Z" fill="#6AE5CC"/>
<path d="M525.308 44.3555C518.927 50.7394 513.11 57.8124 507.857 65.5745L449.312 124.119C454.566 116.357 460.383 109.284 466.763 102.9L525.308 44.3555Z" fill="#6AE5CC"/>
<path d="M725.109 245.07C725.109 275.097 723.343 300.046 719.81 319.916L661.266 378.461C664.798 358.59 666.564 333.642 666.564 303.615L725.109 245.07Z" fill="#6AE5CC"/>
<path d="M575.416 245.071C575.416 200.473 580.273 166.251 589.987 142.406L531.443 200.951C521.728 224.796 516.871 259.017 516.871 303.616L575.416 245.071Z" fill="#6AE5CC"/>
<path d="M719.812 319.919C716.28 339.348 708.994 355.245 697.955 367.609L639.41 426.153C650.449 413.789 657.735 397.893 661.268 378.463L719.812 319.919Z" fill="#6AE5CC"/>
<path d="M774.279 447.602C780.787 441.091 786.695 433.855 792.003 425.894L733.458 484.438C728.151 492.399 722.243 499.636 715.734 506.147L774.279 447.602Z" fill="#6AE5CC"/>
<path d="M507.858 65.5723C478.714 109.288 464.142 169.121 464.142 245.071L405.598 303.615C405.598 227.665 420.169 167.832 449.313 124.117L507.858 65.5723Z" fill="#6AE5CC"/>
<path d="M373.798 108.627V9.27344L315.254 67.818V167.171L373.798 108.627Z" fill="#6AE5CC"/>
<path d="M650.255 385.49C668.957 385.49 683.534 380.849 693.985 371.567L697.945 367.606C696.698 369.009 695.378 370.329 693.985 371.567L639.401 426.151C628.803 438.073 612.906 444.035 591.711 444.035L650.255 385.49Z" fill="#6AE5CC"/>
<path d="M580.714 319.916C577.182 300.046 575.416 275.097 575.416 245.07L516.871 303.615C516.871 333.642 518.637 358.59 522.17 378.461L580.714 319.916Z" fill="#6AE5CC"/>
<path d="M650.26 385.49C629.064 385.49 612.947 379.529 601.908 367.606L543.363 426.151C554.403 438.073 570.52 444.035 591.715 444.035L650.26 385.49Z" fill="#6AE5CC"/>
<path d="M601.908 367.609C591.31 355.245 584.245 339.348 580.712 319.919L522.168 378.463C525.701 397.893 532.766 413.789 543.363 426.153L601.908 367.609Z" fill="#6AE5CC"/>
<path d="M650.255 491.468C703.679 491.468 745.005 476.861 774.232 447.648L715.731 506.148C686.502 535.391 645.162 550.012 591.711 550.012L650.255 491.468Z" fill="#6AE5CC"/>
<path d="M373.8 9.27344H64.4801L5.93555 67.818H315.256L373.8 9.27344Z" fill="#6AE5CC"/>
<path d="M167.146 108.627H373.801L315.257 167.171H108.602L167.146 108.627Z" fill="#6AE5CC"/>
<path d="M464.142 245.07C464.142 321.904 478.714 382.178 507.858 425.893L449.313 484.438C420.169 440.722 405.598 380.448 405.598 303.615L464.142 245.07Z" fill="#6AE5CC"/>
<path d="M386.385 247.721C376.229 223.876 360.111 204.447 338.033 189.434L279.488 247.978C301.567 262.992 317.684 282.421 327.84 306.265L386.385 247.721Z" fill="#6AE5CC"/>
<path d="M507.857 425.894C537.442 469.609 584.911 491.467 650.264 491.467L591.719 550.011C526.367 550.011 478.898 528.154 449.312 484.438L507.857 425.894Z" fill="#6AE5CC"/>
<path d="M338.04 189.433C316.403 174.42 289.026 166.913 255.908 166.913L197.363 225.458C230.481 225.458 257.858 232.964 279.495 247.978L338.04 189.433Z" fill="#6AE5CC"/>
<path d="M401.622 325.216C401.622 297.397 396.544 271.566 386.388 247.721L327.844 306.265C338 330.11 343.078 355.942 343.078 383.761L401.622 325.216Z" fill="#6AE5CC"/>
<path d="M255.904 166.913C237.358 166.913 220.136 170.004 204.24 176.186L145.695 234.731C161.592 228.549 178.813 225.458 197.359 225.458L255.904 166.913Z" fill="#6AE5CC"/>
<path d="M167.146 200.032V108.627L108.602 167.171V258.577L167.146 200.032Z" fill="#6AE5CC"/>
<path d="M167.146 200.032C175.978 190.318 188.341 182.369 204.238 176.188L145.693 234.732C132.446 239.884 121.652 246.262 113.312 253.867L108.602 258.577C110.073 256.958 111.644 255.388 113.312 253.867L167.146 200.032Z" fill="#6AE5CC"/>
<path d="M357.904 448.415C387.048 417.947 401.619 376.881 401.619 325.217L343.075 383.761C343.075 435.425 328.503 476.491 299.359 506.959L357.904 448.415Z" fill="#6AE5CC"/>
<path d="M230.07 257.657C250.382 257.657 265.837 263.398 276.435 274.878L217.89 333.423C207.293 321.942 191.838 316.202 171.525 316.202L230.07 257.657Z" fill="#6AE5CC"/>
<path d="M276.433 274.877C287.031 286.358 292.33 302.917 292.33 324.554L233.785 383.098C233.785 361.461 228.486 344.902 217.889 333.421L276.433 274.877Z" fill="#6AE5CC"/>
<path d="M192.974 268.917C202.689 261.411 215.053 257.657 230.066 257.657L171.522 316.202C156.508 316.202 144.144 319.955 134.43 327.462L192.974 268.917Z" fill="#6AE5CC"/>
<path d="M292.331 324.555C292.331 346.633 287.253 364.296 277.097 377.543L218.553 436.088C228.709 422.841 233.787 405.178 233.787 383.099L292.331 324.555Z" fill="#6AE5CC"/>
<path d="M186.793 274.185C188.679 272.299 190.741 270.543 192.979 268.915L134.435 327.46C132.197 329.087 130.135 330.844 128.248 332.729L186.793 274.185Z" fill="#6AE5CC"/>
<path d="M64.4801 9.27344V297.398L5.93555 355.943V67.818L64.4801 9.27344Z" fill="#6AE5CC"/>
<path d="M277.101 377.544C275.782 379.264 274.374 380.873 272.877 382.369L214.347 440.898C215.839 439.406 217.242 437.803 218.556 436.088L277.101 377.544Z" fill="#6AE5CC"/>
<path d="M173.767 297.399C176.144 288.233 180.478 280.502 186.77 274.207L128.244 332.732C121.942 339.031 117.602 346.768 115.223 355.944L173.767 297.399Z" fill="#6AE5CC"/>
<path d="M272.874 382.367C262.84 392.397 248.793 397.412 230.734 397.412L172.189 455.957C190.248 455.957 204.295 450.942 214.33 440.912L272.874 382.367Z" fill="#6AE5CC"/>
<path d="M357.903 448.413C356.947 449.398 355.979 450.366 354.998 451.318L299.358 506.958C270.215 536.984 229.149 551.998 176.16 551.998L234.705 493.453C285.956 493.453 326.054 479.408 354.998 451.318L357.903 448.413Z" fill="#6AE5CC"/>
<path d="M64.4801 297.396H173.769L115.224 355.941H5.93555L64.4801 297.396Z" fill="#6AE5CC"/>
<path d="M230.734 397.414C213.071 397.414 199.162 392.998 189.005 384.167L130.461 442.712C140.617 451.543 154.527 455.959 172.189 455.959L230.734 397.414Z" fill="#6AE5CC"/>
<path d="M189.005 384.167C178.849 374.894 172.446 363.413 169.796 349.725L111.252 408.269C113.901 421.958 120.304 433.439 130.46 442.712L189.005 384.167Z" fill="#6AE5CC"/>
<path d="M169.793 349.725H59.1793L0.634766 408.269H111.248L169.793 349.725Z" fill="#6AE5CC"/>
<path d="M142.638 475.572C168.691 487.495 199.38 493.456 234.706 493.456L176.161 552C140.836 552 110.146 546.039 84.0938 534.117L142.638 475.572Z" fill="#6AE5CC"/>
<path d="M59.1793 349.725C60.504 377.985 68.2315 402.934 82.3617 424.571L23.8172 483.115C9.68696 461.478 1.95948 436.53 0.634766 408.269L59.1793 349.725Z" fill="#6AE5CC"/>
<path d="M82.3668 424.57C96.497 446.207 116.589 463.208 142.641 475.572L84.0966 534.116C58.044 521.752 37.9525 504.752 23.8223 483.115L82.3668 424.57Z" fill="#6AE5CC"/>
<path d="M373.801 108.626H167.146V200.031C175.977 190.317 188.341 182.369 204.238 176.187C220.134 170.005 237.355 166.914 255.901 166.914C289.019 166.914 316.396 174.42 338.033 189.434C360.112 204.447 376.229 223.876 386.385 247.721C396.541 271.566 401.62 297.398 401.62 325.217C401.62 376.88 387.048 417.946 357.904 448.415C328.76 478.442 287.694 493.455 234.706 493.455C199.38 493.455 168.691 487.494 142.638 475.571C116.586 463.207 96.4943 446.207 82.3641 424.57C68.2338 402.933 60.5064 377.984 59.1816 349.724H169.795C172.444 363.412 178.847 374.893 189.003 384.166C199.159 392.998 213.069 397.413 230.732 397.413C251.486 397.413 266.941 390.79 277.097 377.543C287.253 364.296 292.331 346.633 292.331 324.554C292.331 302.917 287.032 286.358 276.434 274.878C265.837 263.397 250.382 257.656 230.069 257.656C215.056 257.656 202.692 261.41 192.977 268.916C183.263 275.982 176.86 285.475 173.769 297.398H64.4805V9.27302H373.801V108.626Z" fill="white"/>
<path d="M464.14 245.072C464.14 169.121 478.712 109.289 507.855 65.5732C537.44 21.8577 584.909 0 650.262 0C715.614 0 762.862 21.8577 792.006 65.5732C821.591 109.289 836.384 169.121 836.384 245.072C836.384 321.905 821.591 382.179 792.006 425.895C762.862 469.61 715.614 491.468 650.262 491.468C584.909 491.468 537.44 469.61 507.855 425.895C478.712 382.179 464.14 321.905 464.14 245.072ZM725.108 245.072C725.108 200.473 720.251 166.251 710.536 142.406C700.821 118.12 680.73 105.977 650.262 105.977C619.793 105.977 599.702 118.12 589.987 142.406C580.273 166.251 575.415 200.473 575.415 245.072C575.415 275.098 577.182 300.047 580.714 319.918C584.247 339.347 591.312 355.243 601.91 367.607C612.949 379.53 629.066 385.491 650.262 385.491C671.457 385.491 687.354 379.53 697.951 367.607C708.991 355.243 716.276 339.347 719.809 319.918C723.342 300.047 725.108 275.098 725.108 245.072Z" fill="white"/>
<path d="M896.223 245.072C896.223 169.121 910.795 109.289 939.939 65.5732C969.524 21.8577 1016.99 0 1082.35 0C1147.7 0 1194.95 21.8577 1224.09 65.5732C1253.67 109.289 1268.47 169.121 1268.47 245.072C1268.47 321.905 1253.67 382.179 1224.09 425.895C1194.95 469.61 1147.7 491.468 1082.35 491.468C1016.99 491.468 969.524 469.61 939.939 425.895C910.795 382.179 896.223 321.905 896.223 245.072ZM1157.19 245.072C1157.19 200.473 1152.33 166.251 1142.62 142.406C1132.91 118.12 1112.81 105.977 1082.35 105.977C1051.88 105.977 1031.79 118.12 1022.07 142.406C1012.36 166.251 1007.5 200.473 1007.5 245.072C1007.5 275.098 1009.27 300.047 1012.8 319.918C1016.33 339.347 1023.4 355.243 1033.99 367.607C1045.03 379.53 1061.15 385.491 1082.35 385.491C1103.54 385.491 1119.44 379.53 1130.03 367.607C1141.07 355.243 1148.36 339.347 1151.89 319.918C1155.43 300.047 1157.19 275.098 1157.19 245.072Z" fill="white"/>
</svg>
