<svg width="249" height="249" viewBox="0 0 249 249" fill="none" xmlns="http://www.w3.org/2000/svg">
<path d="M193.494 68.934L188.845 63.1227L155.14 87.9174L121.434 63.1227L117.173 68.934L148.941 92.5665L117.173 116.199L121.434 122.01L155.14 97.2155L188.845 122.01L193.494 116.199L161.726 92.5665L193.494 68.934Z" fill="#FDFFFC"/>
<path d="M155.14 139.832H117.173V192.908H155.14V139.832Z" fill="#6AE5CC"/>
<path d="M64.4842 215.766C64.4842 232.424 50.9246 245.984 34.2656 245.984H215.965C232.624 245.984 246.183 232.424 246.183 215.766H64.4842Z" fill="#439DF0"/>
<rect x="16" y="51" width="66" height="71" fill="white"/>
<path d="M3.65997 41.4274V124.722H94.3158V41.4274H3.65997ZM49.3753 53.8247C56.7363 53.8247 62.5475 59.636 62.5475 66.997C62.5475 74.3579 56.7363 80.1692 49.3753 80.1692C42.0144 80.1692 35.8157 74.3579 35.8157 66.997C35.8157 59.636 42.0144 53.8247 49.3753 53.8247ZM73.0078 109.613C73.0078 111.163 71.8456 112.325 70.2959 112.325H28.4547C26.9051 112.325 25.7428 111.163 25.7428 109.613V94.1162C25.7428 89.8546 27.2925 85.593 30.0044 82.4937C31.1667 81.3314 32.7163 80.944 33.8786 82.1063C35.0409 83.2685 35.4283 84.8182 34.266 85.9805C32.3289 88.305 31.5541 91.0169 31.5541 94.1162V106.901H67.584V94.1162C67.584 91.0169 66.4217 88.305 64.8721 85.9805C63.7098 84.8182 64.0972 82.8811 65.2595 82.1063C66.4217 80.944 68.3588 81.3314 69.1337 82.4937C71.8456 85.593 73.3953 89.8546 73.3953 94.1162V109.613H73.0078Z" fill="#439DF0"/>
<path d="M94.316 154.941H3.66014V170.05H94.316V154.941Z" fill="#FDFFFC"/>
<path d="M49.3748 74.7453C53.6541 74.7453 57.1232 71.2762 57.1232 66.9969C57.1232 62.7176 53.6541 59.2485 49.3748 59.2485C45.0955 59.2485 41.6264 62.7176 41.6264 66.9969C41.6264 71.2762 45.0955 74.7453 49.3748 74.7453Z" fill="#439DF0"/>
<path d="M3.65997 3.46021V41.4272H215.578V3.46021H3.65997ZM147.005 25.9305C146.23 26.7053 145.068 27.4801 143.518 27.4801C142.356 27.4801 141.193 27.0927 140.031 25.9305C139.256 25.1556 138.482 23.9934 138.482 22.4437C138.482 21.2814 138.869 20.1192 140.031 18.9569C141.968 17.0198 145.068 17.0198 146.617 18.9569C148.167 20.1192 148.554 21.2814 148.554 22.4437C148.554 23.606 148.167 25.1556 147.005 25.9305ZM168.313 27.0927C165.601 27.0927 163.664 25.1556 163.664 22.4437C163.664 19.7318 165.601 17.7947 168.313 17.7947C171.025 17.7947 172.962 19.7318 172.962 22.4437C173.349 25.1556 171.025 27.0927 168.313 27.0927ZM196.207 25.9305C195.432 26.7053 194.27 27.4801 192.72 27.4801C191.558 27.4801 190.396 27.0927 189.233 25.9305C188.458 25.1556 187.684 23.9934 187.684 22.4437C187.684 21.2814 188.071 20.1192 189.233 18.9569C190.783 17.0198 194.27 17.0198 195.819 18.9569C196.594 19.7318 197.369 20.894 197.369 22.4437C197.757 23.606 197.369 25.1556 196.207 25.9305Z" fill="#439DF0"/>
<path d="M193.107 137.12H174.123C172.574 137.12 171.411 138.282 171.411 139.831V192.908C171.411 194.457 172.574 195.62 174.123 195.62H193.107C194.656 195.62 195.819 194.457 195.819 192.908V139.831C195.819 138.282 194.656 137.12 193.107 137.12ZM190.395 190.196H177.223V142.543H190.395V190.196Z" fill="#439DF0"/>
<path d="M234.561 77.4574C233.011 77.4574 231.849 78.6197 231.849 80.1693V91.7919C231.849 93.3415 233.011 94.5038 234.561 94.5038C236.111 94.5038 237.273 93.3415 237.273 91.7919V80.1693C237.66 78.6197 236.111 77.4574 234.561 77.4574Z" fill="#6AE5CC"/>
<path d="M234.561 104.189C233.011 104.189 231.849 105.352 231.849 106.901V175.087C231.849 176.637 233.011 177.799 234.561 177.799C236.11 177.799 237.273 176.637 237.273 175.087V106.901C237.66 105.352 236.11 104.189 234.561 104.189Z" fill="#6AE5CC"/>
<path d="M60.6104 142.543H79.5939C81.1436 142.543 82.3058 141.381 82.3058 139.831C82.3058 138.282 81.1436 137.119 79.5939 137.119H60.6104C59.0608 137.119 57.8985 138.282 57.8985 139.831C57.8985 141.381 59.0608 142.543 60.6104 142.543Z" fill="#F2EDF0"/>
<path d="M48.2117 139.831C48.2117 138.282 47.0495 137.119 45.4998 137.119H18.7679C17.2183 137.119 16.056 138.282 16.056 139.831C16.056 141.381 17.2183 142.543 18.7679 142.543H45.1124C47.0495 142.543 48.2117 141.381 48.2117 139.831Z" fill="#F2EDF0"/>
<path d="M16.8309 183.222C16.4434 183.61 16.056 184.385 16.056 185.159C16.056 185.934 16.4434 186.709 16.8309 187.096C17.2183 187.484 17.9931 187.871 18.7679 187.871C19.5428 187.871 20.3176 187.484 20.705 187.096C21.0925 186.709 21.4799 185.934 21.4799 185.159C21.4799 184.385 21.0925 183.61 20.705 183.222C19.9302 182.06 17.9931 182.06 16.8309 183.222Z" fill="#F2EDF0"/>
<path d="M49.3736 182.448C47.8239 182.448 46.6616 183.61 46.6616 185.16C46.6616 186.709 47.8239 187.871 49.3736 187.871C50.9232 187.871 52.0855 186.709 52.0855 185.16C52.0855 183.61 50.9232 182.448 49.3736 182.448Z" fill="#F2EDF0"/>
<path d="M64.4845 182.448C62.9349 182.448 61.7726 183.61 61.7726 185.16C61.7726 186.709 62.9349 187.871 64.4845 187.871C66.0342 187.871 67.1965 186.709 67.1965 185.16C67.1965 183.61 66.0342 182.448 64.4845 182.448Z" fill="#F2EDF0"/>
<path d="M34.2647 182.448C32.715 182.448 31.5527 183.61 31.5527 185.16C31.5527 186.709 32.715 187.871 34.2647 187.871C35.8143 187.871 36.9766 186.709 36.9766 185.16C36.9766 183.61 35.8143 182.448 34.2647 182.448Z" fill="#F2EDF0"/>
<path d="M77.6563 183.222C77.2689 183.61 76.8815 184.385 76.8815 185.159C76.8815 185.934 77.2689 186.709 77.6563 187.096C78.0438 187.484 78.8186 187.871 79.5934 187.871C80.3683 187.871 81.1431 187.484 81.5305 187.096C81.9179 186.709 82.3054 185.934 82.3054 185.159C82.3054 184.385 81.9179 183.61 81.5305 183.222C80.3683 182.06 78.4312 182.06 77.6563 183.222Z" fill="#F2EDF0"/>
<path d="M117.172 123.947H192.718C194.268 123.947 195.43 122.785 195.43 121.235V64.2848C195.43 62.7351 194.268 61.5729 192.718 61.5729H117.172C115.622 61.5729 114.46 62.7351 114.46 64.2848V120.848C114.46 122.398 115.622 123.947 117.172 123.947ZM120.271 66.9967H190.394V118.136H120.271V66.9967Z" fill="#F2EDF0"/>
<path d="M117.172 195.62H155.139C156.689 195.62 157.851 194.457 157.851 192.908V139.831C157.851 138.282 156.689 137.119 155.139 137.119H117.172C115.622 137.119 114.46 138.282 114.46 139.831V192.908C114.46 194.457 115.622 195.62 117.172 195.62ZM120.271 142.543H152.427V189.808H120.271V142.543Z" fill="#F2EDF0"/>
<path d="M246.183 212.666H218.676V3.46034C218.676 1.91067 217.514 0.748413 215.964 0.748413H3.65919C2.10952 0.748413 0.947266 1.91067 0.947266 3.46034V215.378C0.947266 233.974 15.6692 248.696 33.8778 248.696H215.577C233.786 248.696 248.508 233.974 248.508 215.766C248.895 213.828 247.733 212.666 246.183 212.666ZM6.75854 6.55969H212.865V38.7154H6.75854V6.55969ZM212.865 44.1393V212.666H97.4144V44.1393H212.865ZM33.8778 242.885C18.7685 242.885 6.37112 230.487 6.37112 215.378V44.1393H91.6031V212.666H64.0964C62.5468 212.666 61.3845 213.828 61.3845 215.378C61.3845 230.875 49.3745 242.885 33.8778 242.885ZM215.964 242.885H52.4739C60.6097 237.461 66.0335 228.55 66.8084 218.09H242.696C241.534 232.037 229.911 242.885 215.964 242.885Z" fill="#F2EDF0"/>
</svg>
