<svg width="249" height="249" viewBox="0 0 249 249" fill="none" xmlns="http://www.w3.org/2000/svg">
<path d="M193.494 68.934L188.845 63.1227L155.14 87.9174L121.434 63.1227L117.173 68.934L148.941 92.5665L117.173 116.199L121.434 122.01L155.14 97.2155L188.845 122.01L193.494 116.199L161.726 92.5665L193.494 68.934Z" fill="#FDFFFC"/>
<path d="M155.14 139.832H117.173V192.908H155.14V139.832Z" fill="#6AE5CC"/>
<path d="M64.4842 215.766C64.4842 232.424 50.9246 245.984 34.2656 245.984H215.965C232.624 245.984 246.183 232.424 246.183 215.766H64.4842Z" fill="#FDFFFC"/>
<path d="M3.66016 215.766C3.66016 232.425 17.2198 245.984 33.8788 245.984C50.5378 245.984 64.0974 232.425 64.0974 215.766H94.316V200.656H3.66016V215.766Z" fill="#FDFFFC"/>
<path d="M3.66016 41.4274V124.722H94.316V41.4274H3.66016ZM49.3755 53.8247C56.7365 53.8247 62.5477 59.636 62.5477 66.997C62.5477 74.3579 56.7365 80.1692 49.3755 80.1692C42.0146 80.1692 35.8159 74.3579 35.8159 66.997C35.8159 59.636 42.0146 53.8247 49.3755 53.8247ZM73.008 109.613C73.008 111.163 71.8458 112.325 70.2961 112.325H28.4549C26.9053 112.325 25.743 111.163 25.743 109.613V94.1162C25.743 89.8546 27.2927 85.593 30.0046 82.4937C31.1669 81.3314 32.7165 80.944 33.8788 82.1063C35.041 83.2685 35.4285 84.8182 34.2662 85.9805C32.3291 88.305 31.5543 91.0169 31.5543 94.1162V106.901H67.5842V94.1162C67.5842 91.0169 66.4219 88.305 64.8722 85.9805C63.71 84.8182 64.0974 82.8811 65.2597 82.1063C66.4219 80.944 68.359 81.3314 69.1338 82.4937C71.8458 85.593 73.3954 89.8546 73.3954 94.1162V109.613H73.008Z" fill="#FDFFFC"/>
<path d="M94.316 154.941H3.66016V170.05H94.316V154.941Z" fill="#FDFFFC"/>
<path d="M49.3748 74.7453C53.6541 74.7453 57.1232 71.2762 57.1232 66.9969C57.1232 62.7176 53.6541 59.2485 49.3748 59.2485C45.0955 59.2485 41.6265 62.7176 41.6265 66.9969C41.6265 71.2762 45.0955 74.7453 49.3748 74.7453Z" fill="#FDFFFC"/>
<path d="M3.66016 3.46021V41.4272H215.578V3.46021H3.66016ZM147.005 25.9305C146.23 26.7053 145.068 27.4801 143.518 27.4801C142.356 27.4801 141.194 27.0927 140.031 25.9305C139.257 25.1556 138.482 23.9934 138.482 22.4437C138.482 21.2814 138.869 20.1192 140.031 18.9569C141.968 17.0198 145.068 17.0198 146.617 18.9569C148.167 20.1192 148.555 21.2814 148.555 22.4437C148.555 23.606 148.167 25.1556 147.005 25.9305ZM168.313 27.0927C165.601 27.0927 163.664 25.1556 163.664 22.4437C163.664 19.7318 165.601 17.7947 168.313 17.7947C171.025 17.7947 172.962 19.7318 172.962 22.4437C173.349 25.1556 171.025 27.0927 168.313 27.0927ZM196.207 25.9305C195.432 26.7053 194.27 27.4801 192.72 27.4801C191.558 27.4801 190.396 27.0927 189.233 25.9305C188.459 25.1556 187.684 23.9934 187.684 22.4437C187.684 21.2814 188.071 20.1192 189.233 18.9569C190.783 17.0198 194.27 17.0198 195.82 18.9569C196.594 19.7318 197.369 20.894 197.369 22.4437C197.757 23.606 197.369 25.1556 196.207 25.9305Z" fill="#439DF0"/>
<path d="M193.107 137.12H174.124C172.574 137.12 171.412 138.282 171.412 139.831V192.908C171.412 194.457 172.574 195.62 174.124 195.62H193.107C194.657 195.62 195.819 194.457 195.819 192.908V139.831C195.819 138.282 194.657 137.12 193.107 137.12ZM190.395 190.196H177.223V142.543H190.395V190.196Z" fill="#439DF0"/>
<path d="M234.561 77.4574C233.011 77.4574 231.849 78.6197 231.849 80.1693V91.7919C231.849 93.3415 233.011 94.5038 234.561 94.5038C236.11 94.5038 237.272 93.3415 237.272 91.7919V80.1693C237.66 78.6197 236.11 77.4574 234.561 77.4574Z" fill="#6AE5CC"/>
<path d="M234.561 104.189C233.011 104.189 231.849 105.352 231.849 106.901V175.087C231.849 176.637 233.011 177.799 234.561 177.799C236.11 177.799 237.272 176.637 237.272 175.087V106.901C237.66 105.352 236.11 104.189 234.561 104.189Z" fill="#6AE5CC"/>
<path d="M60.6104 142.543H79.5939C81.1435 142.543 82.3058 141.381 82.3058 139.831C82.3058 138.282 81.1435 137.119 79.5939 137.119H60.6104C59.0607 137.119 57.8984 138.282 57.8984 139.831C57.8984 141.381 59.0607 142.543 60.6104 142.543Z" fill="#F2EDF0"/>
<path d="M48.2119 139.831C48.2119 138.282 47.0496 137.119 45.4999 137.119H18.7681C17.2184 137.119 16.0562 138.282 16.0562 139.831C16.0562 141.381 17.2184 142.543 18.7681 142.543H45.1125C47.0496 142.543 48.2119 141.381 48.2119 139.831Z" fill="#F2EDF0"/>
<path d="M16.831 183.222C16.4436 183.61 16.0562 184.385 16.0562 185.159C16.0562 185.934 16.4436 186.709 16.831 187.096C17.2184 187.484 17.9932 187.871 18.7681 187.871C19.5429 187.871 20.3178 187.484 20.7052 187.096C21.0926 186.709 21.48 185.934 21.48 185.159C21.48 184.385 21.0926 183.61 20.7052 183.222C19.9303 182.06 17.9932 182.06 16.831 183.222Z" fill="#F2EDF0"/>
<path d="M49.3735 182.448C47.8239 182.448 46.6616 183.61 46.6616 185.16C46.6616 186.709 47.8239 187.871 49.3735 187.871C50.9232 187.871 52.0855 186.709 52.0855 185.16C52.0855 183.61 50.9232 182.448 49.3735 182.448Z" fill="#F2EDF0"/>
<path d="M64.4844 182.448C62.9347 182.448 61.7725 183.61 61.7725 185.16C61.7725 186.709 62.9347 187.871 64.4844 187.871C66.0341 187.871 67.1963 186.709 67.1963 185.16C67.1963 183.61 66.0341 182.448 64.4844 182.448Z" fill="#F2EDF0"/>
<path d="M34.2647 182.448C32.715 182.448 31.5527 183.61 31.5527 185.16C31.5527 186.709 32.715 187.871 34.2647 187.871C35.8143 187.871 36.9766 186.709 36.9766 185.16C36.9766 183.61 35.8143 182.448 34.2647 182.448Z" fill="#F2EDF0"/>
<path d="M77.6562 183.222C77.2688 183.61 76.8813 184.385 76.8813 185.159C76.8813 185.934 77.2688 186.709 77.6562 187.096C78.0436 187.484 78.8184 187.871 79.5933 187.871C80.3681 187.871 81.1429 187.484 81.5304 187.096C81.9178 186.709 82.3052 185.934 82.3052 185.159C82.3052 184.385 81.9178 183.61 81.5304 183.222C80.3681 182.06 78.431 182.06 77.6562 183.222Z" fill="#F2EDF0"/>
<path d="M117.172 123.947H192.718C194.268 123.947 195.43 122.785 195.43 121.235V64.2848C195.43 62.7351 194.268 61.5729 192.718 61.5729H117.172C115.622 61.5729 114.46 62.7351 114.46 64.2848V120.848C114.46 122.398 115.622 123.947 117.172 123.947ZM120.271 66.9967H190.394V118.136H120.271V66.9967Z" fill="#F2EDF0"/>
<path d="M117.172 195.62H155.139C156.689 195.62 157.851 194.457 157.851 192.908V139.831C157.851 138.282 156.689 137.119 155.139 137.119H117.172C115.622 137.119 114.46 138.282 114.46 139.831V192.908C114.46 194.457 115.622 195.62 117.172 195.62ZM120.271 142.543H152.427V189.808H120.271V142.543Z" fill="#F2EDF0"/>
<path d="M246.183 212.666H218.676V3.46034C218.676 1.91067 217.514 0.748413 215.964 0.748413H3.65919C2.10952 0.748413 0.947266 1.91067 0.947266 3.46034V215.378C0.947266 233.974 15.6692 248.696 33.8778 248.696H215.577C233.786 248.696 248.508 233.974 248.508 215.766C248.895 213.828 247.733 212.666 246.183 212.666ZM6.75854 6.55969H212.865V38.7154H6.75854V6.55969ZM212.865 44.1393V212.666H97.4144V44.1393H212.865ZM33.8778 242.885C18.7685 242.885 6.37112 230.487 6.37112 215.378V44.1393H91.6031V212.666H64.0964C62.5468 212.666 61.3845 213.828 61.3845 215.378C61.3845 230.875 49.3745 242.885 33.8778 242.885ZM215.964 242.885H52.4739C60.6097 237.461 66.0335 228.55 66.8084 218.09H242.696C241.534 232.037 229.911 242.885 215.964 242.885Z" fill="#F2EDF0"/>
</svg>
