<svg width="1708" height="976" viewBox="0 0 1708 976" fill="none" xmlns="http://www.w3.org/2000/svg">
<path d="M722.568 570.929C730.846 573.147 735.759 581.656 733.541 589.934C731.322 598.212 722.814 603.124 714.536 600.906C706.258 598.688 701.345 590.179 703.563 581.901C705.781 573.623 714.29 568.711 722.568 570.929Z" fill="#00FBFF"/>
<path d="M811.287 594.701C819.565 596.919 824.477 605.428 822.259 613.706C820.041 621.984 811.532 626.896 803.254 624.678C794.976 622.46 790.064 613.951 792.282 605.673C794.5 597.395 803.009 592.483 811.287 594.701Z" fill="#00FBFF"/>
<path d="M910.974 637.477C913.254 628.97 908.104 620.643 900.002 618.472C891.495 616.192 883.168 621.342 880.997 629.444C878.717 637.951 883.867 646.278 891.969 648.449C900.071 650.62 908.803 645.579 910.974 637.477Z" fill="#00FBFF"/>
<path d="M988.312 642.135C996.59 644.353 1001.5 652.862 999.285 661.14C997.067 669.418 988.558 674.331 980.28 672.112C972.002 669.894 967.089 661.386 969.307 653.107C971.525 644.829 980.034 639.917 988.312 642.135Z" fill="#00FBFF"/>
<path d="M1077.03 665.907C1085.31 668.125 1090.22 676.634 1088.01 684.912C1085.79 693.19 1077.28 698.103 1069 695.885C1060.72 693.667 1055.81 685.158 1058.03 676.88C1060.25 668.602 1068.75 663.689 1077.03 665.907Z" fill="#00FBFF"/>
<path d="M1176.72 708.684C1179 700.177 1173.85 691.85 1165.75 689.679C1157.24 687.4 1148.92 692.55 1146.75 700.652C1144.47 709.159 1149.62 717.486 1157.72 719.657C1165.82 721.828 1174.55 716.786 1176.72 708.684Z" fill="#00FBFF"/>
<path d="M1254.06 713.342C1262.34 715.561 1267.25 724.069 1265.03 732.347C1262.82 740.625 1254.31 745.538 1246.03 743.32C1237.75 741.102 1232.84 732.593 1235.06 724.315C1237.28 716.037 1245.78 711.124 1254.06 713.342Z" fill="#00FBFF"/>
<path d="M1342.78 737.113C1351.06 739.332 1355.97 747.84 1353.75 756.118C1351.53 764.396 1343.02 769.309 1334.74 767.091C1326.47 764.873 1321.55 756.364 1323.77 748.086C1325.99 739.808 1334.5 734.895 1342.78 737.113Z" fill="#00FBFF"/>
<path d="M1442.47 779.89C1444.75 771.383 1439.6 763.056 1431.5 760.885C1422.99 758.606 1414.66 763.756 1412.49 771.858C1410.21 780.365 1415.36 788.692 1423.46 790.863C1431.57 793.034 1440.3 787.992 1442.47 779.89Z" fill="#00FBFF"/>
<path d="M335.241 306.931C337.521 298.424 332.371 290.097 324.269 287.926C315.762 285.646 307.03 290.688 304.859 298.79C302.579 307.297 307.729 315.624 315.831 317.795C324.23 320.479 332.962 315.438 335.241 306.931Z" fill="#00FBFF"/>
<path d="M423.555 330.594C425.834 322.087 420.684 313.76 412.582 311.589C404.075 309.31 395.748 314.46 393.577 322.562C391.298 331.069 396.448 339.396 404.55 341.567C412.949 344.251 421.275 339.101 423.555 330.594Z" fill="#00FBFF"/>
<path d="M512.27 354.366C514.549 345.858 509.399 337.532 501.297 335.361C492.79 333.081 484.463 338.231 482.292 346.333C480.013 354.84 485.163 363.167 493.265 365.338C501.258 367.914 509.99 362.873 512.27 354.366Z" fill="#00FBFF"/>
<path d="M600.58 378.028C602.86 369.521 597.71 361.194 589.608 359.023C581.101 356.744 572.774 361.894 570.603 369.996C568.323 378.503 573.473 386.83 581.575 389.001C589.974 391.685 598.301 386.535 600.58 378.028Z" fill="#00FBFF"/>
<path d="M689.301 401.801C691.58 393.293 686.43 384.967 678.328 382.796C669.821 380.516 661.494 385.666 659.324 393.768C657.044 402.275 662.194 410.602 670.296 412.773C678.29 415.349 687.022 410.308 689.301 401.801Z" fill="#00FBFF"/>
<path d="M778.019 425.572C780.299 417.065 775.149 408.738 767.047 406.567C758.945 404.396 750.213 409.438 748.042 417.54C745.762 426.047 750.912 434.374 759.014 436.545C767.116 438.715 775.74 434.079 778.019 425.572Z" fill="#00FBFF"/>
<path d="M866.33 449.236C868.61 440.729 863.46 432.402 855.358 430.231C846.851 427.951 838.524 433.101 836.353 441.203C834.073 449.71 839.223 458.037 847.325 460.208C855.724 462.893 864.051 457.743 866.33 449.236Z" fill="#00FBFF"/>
<path d="M955.045 473.006C957.325 464.499 952.175 456.172 944.073 454.001C935.565 451.722 927.239 456.872 925.068 464.974C922.788 473.481 927.938 481.808 936.04 483.979C944.034 486.555 952.766 481.513 955.045 473.006Z" fill="#00FBFF"/>
<path d="M1043.76 496.778C1046.04 488.27 1040.89 479.944 1032.79 477.773C1024.69 475.602 1015.96 480.643 1013.79 488.745C1011.51 497.252 1016.66 505.579 1024.76 507.75C1032.86 509.921 1041.48 505.285 1043.76 496.778Z" fill="#00FBFF"/>
<path d="M345.9 205.582C354.178 207.8 359.091 216.309 356.873 224.587C354.655 232.865 346.146 237.777 337.868 235.559C329.59 233.341 324.677 224.832 326.895 216.554C329.113 208.276 337.622 203.364 345.9 205.582Z" fill="#00FBFF"/>
<path d="M445.589 248.359C447.869 239.852 442.719 231.525 434.617 229.354C426.11 227.074 417.783 232.224 415.612 240.326C413.332 248.833 418.482 257.16 426.584 259.331C435.092 261.611 443.418 256.461 445.589 248.359Z" fill="#00FBFF"/>
<path d="M523.334 253.125C531.612 255.343 536.524 263.852 534.306 272.13C532.088 280.408 523.579 285.321 515.301 283.103C507.023 280.885 502.111 272.376 504.329 264.098C506.547 255.82 515.056 250.907 523.334 253.125Z" fill="#00FBFF"/>
<path d="M611.644 276.788C619.922 279.006 624.835 287.515 622.617 295.793C620.399 304.071 611.89 308.983 603.612 306.765C595.334 304.547 590.421 296.038 592.639 287.76C594.857 279.482 603.366 274.57 611.644 276.788Z" fill="#00FBFF"/>
<path d="M711.337 319.565C713.617 311.058 708.467 302.731 700.365 300.56C691.858 298.281 683.531 303.431 681.36 311.533C679.08 320.04 684.23 328.367 692.332 330.538C700.435 332.709 709.167 327.667 711.337 319.565Z" fill="#00FBFF"/>
<path d="M788.674 324.223C796.952 326.441 801.864 334.95 799.646 343.228C797.428 351.506 788.919 356.418 780.641 354.2C772.363 351.982 767.45 343.473 769.669 335.195C771.887 326.917 780.395 322.005 788.674 324.223Z" fill="#00FBFF"/>
<path d="M877.394 347.995C885.672 350.213 890.585 358.722 888.367 367C886.149 375.278 877.64 380.191 869.362 377.973C861.084 375.755 856.171 367.246 858.389 358.968C860.607 350.69 869.116 345.777 877.394 347.995Z" fill="#00FBFF"/>
<path d="M977.082 390.771C979.361 382.264 974.211 373.937 966.109 371.766C957.602 369.487 949.275 374.637 947.104 382.739C944.825 391.246 949.975 399.573 958.077 401.744C966.179 403.915 974.911 398.873 977.082 390.771Z" fill="#00FBFF"/>
<path d="M1054.42 395.43C1062.7 397.648 1067.61 406.157 1065.4 414.435C1063.18 422.713 1054.67 427.626 1046.39 425.408C1038.11 423.19 1033.2 414.681 1035.42 406.403C1037.64 398.125 1046.15 393.212 1054.42 395.43Z" fill="#00FBFF"/>
<path d="M667.267 484.036C669.547 475.529 664.397 467.202 656.295 465.031C647.787 462.751 639.461 467.901 637.29 476.003C635.01 484.511 640.16 492.837 648.262 495.008C656.364 497.179 664.988 492.543 667.267 484.036Z" fill="#00FBFF"/>
<path d="M755.986 507.808C758.265 499.301 753.115 490.974 745.013 488.803C736.911 486.632 728.179 491.674 726.008 499.776C723.729 508.283 728.879 516.61 736.981 518.781C745.083 520.952 753.706 516.315 755.986 507.808Z" fill="#00FBFF"/>
<path d="M844.296 531.471C846.576 522.964 841.426 514.637 833.324 512.466C824.817 510.187 816.49 515.337 814.319 523.439C812.039 531.946 817.189 540.273 825.291 542.444C833.799 544.723 842.017 539.979 844.296 531.471Z" fill="#00FBFF"/>
<path d="M933.011 555.242C935.291 546.735 930.141 538.408 922.039 536.237C913.532 533.957 905.205 539.107 903.034 547.209C900.754 555.717 905.904 564.044 914.006 566.214C922.108 568.385 930.732 563.749 933.011 555.242Z" fill="#00FBFF"/>
<path d="M1021.73 579.015C1024.01 570.508 1018.86 562.181 1010.76 560.01C1002.66 557.839 993.925 562.88 991.755 570.982C989.475 579.49 994.625 587.816 1002.73 589.987C1010.83 592.158 1019.45 587.522 1021.73 579.015Z" fill="#00FBFF"/>
<path d="M1110.04 602.678C1112.32 594.171 1107.17 585.844 1099.07 583.673C1090.56 581.394 1082.24 586.544 1080.07 594.646C1077.79 603.153 1082.94 611.48 1091.04 613.65C1099.54 615.93 1107.76 611.185 1110.04 602.678Z" fill="#00FBFF"/>
<path d="M1198.76 626.45C1201.04 617.943 1195.89 609.616 1187.79 607.445C1179.28 605.165 1170.95 610.315 1168.78 618.418C1166.5 626.925 1171.65 635.252 1179.76 637.422C1187.86 639.593 1196.48 634.957 1198.76 626.45Z" fill="#00FBFF"/>
<path d="M1287.48 650.22C1289.76 641.713 1284.61 633.386 1276.5 631.215C1268.4 629.045 1259.67 634.086 1257.5 642.188C1255.22 650.695 1260.37 659.022 1268.47 661.193C1276.57 663.364 1285.2 658.728 1287.48 650.22Z" fill="#00FBFF"/>
<path d="M1375.79 673.885C1378.07 665.378 1372.92 657.051 1364.82 654.88C1356.31 652.601 1347.98 657.751 1345.81 665.853C1343.53 674.36 1348.68 682.687 1356.79 684.858C1364.89 687.028 1373.51 682.392 1375.79 673.885Z" fill="#00FBFF"/>
</svg>
