<svg width="249" height="248" viewBox="0 0 249 248" fill="none" xmlns="http://www.w3.org/2000/svg">
<path d="M227.065 242.136H208.081C206.532 242.136 205.369 243.299 205.369 244.848C205.369 246.398 206.532 247.56 208.081 247.56H227.065C228.615 247.56 229.777 246.398 229.777 244.848C229.777 243.686 228.615 242.136 227.065 242.136Z" fill="#6AE5CC"/>
<path d="M189.099 242.136H82.946C81.3964 242.136 80.2341 243.299 80.2341 244.848C80.2341 246.398 81.3964 247.56 82.946 247.56H189.099C190.648 247.56 191.811 246.398 191.811 244.848C191.811 243.686 190.648 242.136 189.099 242.136Z" fill="#6AE5CC"/>
<path d="M84.1077 73.6096L122.075 62.7618C123.624 62.3744 124.399 60.8247 124.012 59.2751C123.624 57.7254 122.075 56.9506 120.525 57.338L82.9455 68.1857H41.4917C39.942 68.1857 38.7798 69.3479 38.7798 70.8976C38.7798 72.4473 39.942 73.6096 41.4917 73.6096H82.9455C83.3329 73.997 83.7203 73.6096 84.1077 73.6096Z" fill="#6AE5CC"/>
<path d="M177.865 94.5297V120.099V153.03C191.037 149.543 200.722 137.921 200.722 123.586C200.335 110.026 190.649 98.0164 177.865 94.5297Z" fill="#FDFFFC"/>
<path d="M235.589 89.8809L231.328 93.755C246.824 110.414 246.824 137.533 231.328 154.192L235.589 158.066C253.023 139.47 253.023 108.477 235.589 89.8809Z" fill="#FDFFFC"/>
<path d="M213.508 107.702C221.256 116.613 221.256 131.334 213.508 140.632L217.769 144.119C227.067 132.884 227.067 115.063 217.769 103.828L213.508 107.702Z" fill="#FDFFFC"/>
<path d="M86.8212 105.765V122.037L177.865 120.099V89.8809L86.8212 105.765Z" fill="#FDFFFC"/>
<path d="M86.8213 154.192H41.4933V123.974H3.52634V222.378H29.8708V245.236L71.3245 222.378H139.51V169.689L86.8213 154.192ZM26.384 173.951H45.3675C46.9172 173.951 48.0794 175.113 48.0794 176.663C48.0794 178.212 46.9172 179.375 45.3675 179.375H26.384C24.8343 179.375 23.6721 178.212 23.6721 176.663C23.6721 175.5 24.8343 173.951 26.384 173.951ZM64.351 202.62H26.384C24.8343 202.62 23.6721 201.458 23.6721 199.908C23.6721 198.358 24.8343 197.196 26.384 197.196H64.351C65.9007 197.196 67.0629 198.358 67.0629 199.908C67.0629 201.07 65.9007 202.62 64.351 202.62ZM120.139 199.52C120.139 201.07 118.977 202.232 117.427 202.232H83.3345C81.7848 202.232 80.6226 201.07 80.6226 199.52C80.6226 197.971 81.7848 196.809 83.3345 196.809H117.04C118.59 196.809 120.139 197.971 120.139 199.52ZM89.9206 177.05C89.9206 178.6 88.7583 179.762 87.2087 179.762H64.351C62.8013 179.762 61.6391 178.6 61.6391 177.05C61.6391 175.501 62.8013 174.338 64.351 174.338H87.2087C88.3709 173.951 89.9206 175.501 89.9206 177.05Z" fill="#FDFFFC"/>
<path d="M74.8112 121.262H53.8906V127.073H74.8112V121.262Z" fill="#439DF0"/>
<path d="M74.8116 106.153H53.891V111.964H74.8116V106.153Z" fill="#439DF0"/>
<path d="M74.8112 136.371H53.8906V142.183H74.8112V136.371Z" fill="#439DF0"/>
<path d="M3.52618 2.71179V40.6788H245.663V2.71179H3.52618ZM177.477 25.182C176.702 25.9569 175.54 26.7317 173.99 26.7317C172.828 26.7317 171.666 26.3443 170.503 25.182C169.729 24.4072 168.954 23.245 168.954 21.6953C168.954 20.533 169.341 19.3708 170.503 18.2085C172.053 16.6588 175.54 16.6588 177.09 18.2085C177.864 18.9834 178.639 20.1456 178.639 21.6953C178.639 22.8575 178.252 24.4072 177.477 25.182ZM200.335 26.3443C197.623 26.3443 195.686 24.4072 195.686 21.6953C195.686 18.9834 197.623 17.0463 200.335 17.0463C203.047 17.0463 204.984 18.9834 204.984 21.6953C205.371 24.4072 203.047 26.3443 200.335 26.3443ZM230.166 25.182C229.391 25.9569 228.229 26.7317 226.679 26.7317C225.517 26.7317 224.355 26.3443 223.192 25.182C222.417 24.4072 221.643 23.245 221.643 21.6953C221.643 20.533 222.03 19.3708 223.192 18.2085C225.129 16.6588 228.229 16.6588 229.778 18.2085C230.553 18.9834 231.328 20.1456 231.328 21.6953C231.716 22.8575 231.328 24.4072 230.166 25.182Z" fill="#439DF0"/>
<path d="M246.05 166.59C244.5 166.59 243.338 167.752 243.338 169.302V219.279H158.881C157.331 219.279 156.169 220.441 156.169 221.991C156.169 223.54 157.331 224.703 158.881 224.703H246.05C247.599 224.703 248.762 223.54 248.762 221.991V169.302C248.762 167.752 247.599 166.59 246.05 166.59Z" fill="#F2EDF0"/>
<path d="M246.05 0H3.52632C1.97665 0 0.814392 1.16225 0.814392 2.71193V104.99C0.814392 106.54 1.97665 107.702 3.52632 107.702C5.07599 107.702 6.23825 106.54 6.23825 104.99V43.3908H242.951V78.2585C242.951 79.8082 244.113 80.9704 245.663 80.9704C247.212 80.9704 248.375 79.8082 248.375 78.2585V2.71193C248.762 1.16225 247.6 0 246.05 0ZM242.951 37.967H6.62567V5.81127H243.338V37.967H242.951Z" fill="#F2EDF0"/>
<path d="M177.089 183.636C177.476 183.636 177.476 183.636 177.864 183.636C178.638 183.636 179.026 183.636 179.413 183.249C180.188 182.861 180.576 181.699 180.576 180.924V67.0234C180.576 66.2486 180.188 65.4737 179.413 64.6989C178.638 64.3115 177.864 63.9241 177.089 64.3115L86.8203 90.6559H41.4924C39.9427 90.6559 38.7805 91.8182 38.7805 93.3678V120.875H3.91282C1.97573 121.262 0.813477 122.424 0.813477 123.974V222.378C0.813477 223.928 1.97573 225.09 3.5254 225.09H27.1579V244.848C27.1579 246.011 27.5453 246.785 28.7076 247.173C29.095 247.948 29.4824 247.948 30.2573 247.948C30.6447 247.948 31.0321 247.948 31.8069 247.56L72.8733 225.09H140.284C141.834 225.09 142.996 223.928 142.996 222.378V173.563L177.089 183.636ZM174.764 177.05L89.5323 152.255V95.6924L174.764 70.8976V177.05ZM44.2043 96.4672H84.1084V151.481H44.2043V96.4672ZM137.185 219.666H71.711C71.3236 219.666 70.9362 219.666 70.1613 220.054L32.9692 240.199V222.378C32.9692 221.603 32.5818 220.828 32.1944 220.441C31.8069 220.054 31.0321 219.666 30.2573 219.666H6.62475V126.686H38.7805V154.192C38.7805 155.742 39.9427 156.904 41.4924 156.904H86.4329L136.797 171.626V219.666H137.185Z" fill="#F2EDF0"/>
</svg>
