<svg width="75" height="75" viewBox="0 0 75 75" fill="none" xmlns="http://www.w3.org/2000/svg">
<path fill-rule="evenodd" clip-rule="evenodd" d="M37.4722 2C17.9104 2 2 17.9107 2 37.4722C2 57.0312 17.9107 72.9447 37.4722 72.9447C57.0312 72.9447 72.9447 57.0312 72.9447 37.4722C72.9444 17.9107 57.0309 2 37.4722 2V2Z" stroke="#585858" stroke-width="3"/>
<path d="M61.0744 63.9306C53.3845 60.726 45.909 57.0371 45.1875 54.7237V51.6149C47.2435 49.5115 48.8651 46.578 49.8249 43.1436C52.1136 41.5368 52.7149 38.2003 50.7953 35.8387V28.8792C50.7953 21.6945 46.7946 16.7763 37.6478 16.7763C28.7374 16.7763 24.4956 21.6945 24.4956 28.8792V35.8412C22.5829 38.1956 23.1774 41.5311 25.4661 43.1424C26.4258 46.578 28.0487 49.5115 30.106 51.6149V54.7237C29.3788 57.0584 22.3782 60.5113 14.5894 63.7466" stroke="#585858" stroke-width="3"/>
</svg>
