<svg width="181" height="113" viewBox="0 0 181 113" fill="none" xmlns="http://www.w3.org/2000/svg">
<path d="M180.583 71.0393C177.968 53.587 163.084 41.1497 146.189 40.3473C150.413 24.7004 160.671 18.4818 173.141 14.871C174.348 14.4698 174.147 13.2662 174.147 13.2662L172.135 0.828934C172.135 0.828934 171.934 -0.174074 170.325 0.0265266C127.283 4.84095 98.1187 37.5389 103.549 77.2579C108.578 104.74 130.099 115.372 150.011 112.564C169.923 109.354 183.6 90.8988 180.583 71.0393ZM43.2095 40.3473C47.2321 24.7004 57.8922 18.4818 70.1613 14.871C71.3681 14.4698 71.1669 13.2662 71.1669 13.2662L69.3567 0.828934C69.3567 0.828934 69.1556 -0.174074 67.5465 0.0265266C24.303 4.84095 -4.4589 37.5389 0.569411 77.2579C5.79886 104.74 27.5212 115.372 47.2321 112.564C67.1443 109.354 80.8213 90.8988 77.6032 71.0393C74.9884 53.3864 60.3058 40.9491 43.2095 40.3473Z" fill="#0BD0DB"/>
</svg>
