<svg width="248" height="249" viewBox="0 0 248 249" fill="none" xmlns="http://www.w3.org/2000/svg">
<path d="M157.292 52.6887C157.292 61.9867 165.041 69.7351 174.339 69.7351C183.637 69.7351 191.385 61.9867 191.385 52.6887C191.385 43.3907 183.637 35.6423 174.339 35.6423C165.041 35.6423 157.292 43.0033 157.292 52.6887Z" fill="#FDFFFC"/>
<path d="M57.7245 160.391H36.804C35.2543 160.391 34.092 161.553 34.092 163.103V184.024C34.092 185.573 35.2543 186.736 36.804 186.736H57.7245C59.2742 186.736 60.4365 185.573 60.4365 184.024V163.103C60.4365 161.553 59.2742 160.391 57.7245 160.391ZM54.6252 181.312H39.5159V166.203H54.6252V181.312Z" fill="#FDFFFC"/>
<path d="M112.351 169.689H69.7352V177.437H112.351V169.689Z" fill="#6AE5CC"/>
<path d="M164.653 109.252H135.596V117H164.653C179.375 117 190.997 129.01 190.997 143.345C190.997 158.066 178.987 169.689 164.653 169.689H123.974V177.437H164.653C183.249 177.437 198.746 162.328 198.746 143.345C198.358 124.748 183.249 109.252 164.653 109.252Z" fill="#6AE5CC"/>
<path d="M83.2957 109.252C68.5738 109.252 56.9512 97.2418 56.9512 82.9073C56.9512 68.1854 68.9612 56.5629 83.2957 56.5629H135.21V61.9867L151.481 52.6887L135.21 43.3907V49.2019H83.2957C64.6996 49.2019 49.2029 64.3112 49.2029 83.2947C49.2029 101.891 64.3122 117.388 83.2957 117.388V109.252Z" fill="#6AE5CC"/>
<path d="M123.974 109.252H94.9175V117H123.974V109.252Z" fill="#6AE5CC"/>
<path d="M83.2949 79.0334C87.5742 79.0334 91.0433 75.5644 91.0433 71.285C91.0433 67.0057 87.5742 63.5367 83.2949 63.5367C79.0156 63.5367 75.5465 67.0057 75.5465 71.285C75.5465 75.5644 79.0156 79.0334 83.2949 79.0334Z" fill="#439DF0"/>
<path d="M56.9512 48.8146C61.2305 48.8146 64.6996 45.3455 64.6996 41.0662C64.6996 36.7869 61.2305 33.3179 56.9512 33.3179C52.6719 33.3179 49.2029 36.7869 49.2029 41.0662C49.2029 45.3455 52.6719 48.8146 56.9512 48.8146Z" fill="#439DF0"/>
<path d="M52.6893 128.235C56.9686 128.235 60.4377 124.766 60.4377 120.487C60.4377 116.208 56.9686 112.739 52.6893 112.739C48.41 112.739 44.9409 116.208 44.9409 120.487C44.9409 124.766 48.41 128.235 52.6893 128.235Z" fill="#439DF0"/>
<path d="M132.498 139.858C136.777 139.858 140.246 136.389 140.246 132.11C140.246 127.83 136.777 124.361 132.498 124.361C128.218 124.361 124.749 127.83 124.749 132.11C124.749 136.389 128.218 139.858 132.498 139.858Z" fill="#439DF0"/>
<path d="M208.044 113.126C203.783 113.126 200.296 116.613 200.296 120.874C200.296 125.136 203.783 128.623 208.044 128.623C212.306 128.623 215.793 125.136 215.793 120.874C215.793 116.613 212.306 113.126 208.044 113.126Z" fill="#439DF0"/>
<path d="M247.948 12.3972H0V23.6323H247.948V12.3972Z" fill="white"/>
<path d="M247.948 201.457H7.62939e-05V212.693H247.948V201.457Z" fill="white"/>
<path d="M96.4669 145.282L90.6556 150.706L85.2317 145.282L80.9701 149.156L86.7814 154.58L80.9701 160.391L85.2317 164.265L90.6556 158.841L96.4669 164.265L100.341 160.391L94.9172 154.58L100.341 149.156L96.4669 145.282Z" fill="#FDFFFC"/>
<path d="M175.888 141.408L170.077 146.832L164.653 141.408L160.779 145.282L166.203 151.093L160.779 156.517L164.653 160.391L170.077 154.967L175.888 160.391L179.762 156.517L174.338 151.093L179.762 145.282L175.888 141.408Z" fill="#FDFFFC"/>
<path d="M160.779 103.828L166.59 98.017L172.014 103.828L175.888 99.5667L170.464 94.1428L175.888 88.7189L172.014 84.4573L166.59 90.2686L160.779 84.4573L156.905 88.7189L162.328 94.1428L156.905 99.5667L160.779 103.828Z" fill="#FDFFFC"/>
<path d="M206.106 175.501L202.232 171.626L196.808 177.05L190.997 171.626L187.122 175.501L192.546 181.312L187.122 186.736L190.997 190.997L196.808 185.186L202.232 190.997L206.106 186.736L200.682 181.312L206.106 175.501Z" fill="#FDFFFC"/>
<path d="M115.063 84.4573L109.639 90.2686L104.215 84.4573L99.9533 88.7189L105.765 94.1428L99.9533 99.5667L104.215 103.828L109.639 98.017L115.063 103.828L119.324 99.5667L113.513 94.1428L119.324 88.7189L115.063 84.4573Z" fill="#FDFFFC"/>
<path d="M39.5159 61.9869L34.0921 67.4107L28.2808 61.9869L24.4066 65.8611L29.8305 71.2849L24.4066 77.0962L28.2808 80.9704L34.0921 75.5465L39.5159 80.9704L43.3901 77.0962L37.9663 71.2849L43.3901 65.8611L39.5159 61.9869Z" fill="#FDFFFC"/>
<path d="M191.383 39.9039L174.337 56.9503L167.751 50.3642C166.589 49.202 165.039 49.202 163.877 50.3642C162.715 51.5265 162.715 53.4636 163.877 54.2384L172.4 62.7616C172.787 63.149 173.562 63.5364 174.337 63.5364C175.112 63.5364 175.887 63.149 176.274 62.7616L195.258 43.7781C196.42 42.6158 196.42 40.6788 195.258 39.9039C194.483 38.7417 192.546 38.7417 191.383 39.9039Z" fill="#6AE5CC"/>
<path d="M17.0461 23.6324H11.2348V201.457H17.0461V23.6324Z" fill="#F2EDF0"/>
<path d="M123.973 0C122.423 0 121.261 1.16225 121.261 2.71193V12.01H127.072V2.71193C126.685 1.16225 125.523 0 123.973 0Z" fill="#F2EDF0"/>
<path d="M121.261 245.236C121.261 246.785 122.423 247.948 123.973 247.948C125.522 247.948 126.685 246.785 126.685 245.236V213.08H120.873V245.236H121.261Z" fill="#F2EDF0"/>
<path d="M53.0765 244.073C52.3017 245.623 53.0765 247.173 54.6262 247.948C56.1758 248.722 57.7255 247.948 58.5004 246.398L73.6097 213.08H67.411L53.0765 244.073Z" fill="#F2EDF0"/>
<path d="M180.924 213.08H174.338L189.447 246.398C189.835 247.56 190.997 247.948 192.159 247.948C192.547 247.948 192.934 247.948 193.322 247.56C194.871 246.785 195.259 245.236 194.871 243.686L180.924 213.08Z" fill="#F2EDF0"/>
<path d="M236.713 23.6324H230.902V201.457H236.713V23.6324Z" fill="#F2EDF0"/>
</svg>
