<svg width="249" height="249" viewBox="0 0 249 249" fill="none" xmlns="http://www.w3.org/2000/svg">
<path d="M157.574 53.4372C157.574 62.7352 165.323 70.4836 174.621 70.4836C183.919 70.4836 191.667 62.7352 191.667 53.4372C191.667 44.1391 183.919 36.3907 174.621 36.3907C165.323 36.3907 157.574 43.7517 157.574 53.4372Z" fill="#FDFFFC"/>
<path d="M58.0065 161.14H37.086C35.5363 161.14 34.374 162.302 34.374 163.852V184.772C34.374 186.322 35.5363 187.484 37.086 187.484H58.0065C59.5562 187.484 60.7185 186.322 60.7185 184.772V163.852C60.7185 162.302 59.5562 161.14 58.0065 161.14ZM54.9072 182.06H39.7979V166.951H54.9072V182.06Z" fill="#FDFFFC"/>
<path d="M112.633 170.437H70.0171V178.186H112.633V170.437Z" fill="#6AE5CC"/>
<path d="M164.935 110H135.878V117.748H164.935C179.657 117.748 191.279 129.758 191.279 144.093C191.279 158.815 179.269 170.437 164.935 170.437H124.256V178.186H164.935C183.531 178.186 199.028 163.076 199.028 144.093C198.64 125.497 183.531 110 164.935 110Z" fill="#6AE5CC"/>
<path d="M83.5777 110C68.8558 110 57.2332 97.9902 57.2332 83.6557C57.2332 68.9338 69.2432 57.3113 83.5777 57.3113H135.492V62.7351L151.763 53.4371L135.492 44.139V49.9503H83.5777C64.9816 49.9503 49.4849 65.0596 49.4849 84.0431C49.4849 102.639 64.5942 118.136 83.5777 118.136V110Z" fill="#6AE5CC"/>
<path d="M124.256 110H95.1997V117.748H124.256V110Z" fill="#6AE5CC"/>
<path d="M83.577 79.7819C87.8563 79.7819 91.3253 76.3128 91.3253 72.0335C91.3253 67.7542 87.8563 64.2852 83.577 64.2852C79.2977 64.2852 75.8286 67.7542 75.8286 72.0335C75.8286 76.3128 79.2977 79.7819 83.577 79.7819Z" fill="#439DF0"/>
<path d="M57.2332 49.563C61.5125 49.563 64.9816 46.094 64.9816 41.8146C64.9816 37.5353 61.5125 34.0663 57.2332 34.0663C52.9539 34.0663 49.4849 37.5353 49.4849 41.8146C49.4849 46.094 52.9539 49.563 57.2332 49.563Z" fill="#439DF0"/>
<path d="M52.9715 128.984C57.2508 128.984 60.7199 125.515 60.7199 121.235C60.7199 116.956 57.2508 113.487 52.9715 113.487C48.6922 113.487 45.2231 116.956 45.2231 121.235C45.2231 125.515 48.6922 128.984 52.9715 128.984Z" fill="#439DF0"/>
<path d="M132.78 140.606C137.059 140.606 140.528 137.137 140.528 132.858C140.528 128.579 137.059 125.11 132.78 125.11C128.501 125.11 125.032 128.579 125.032 132.858C125.032 137.137 128.501 140.606 132.78 140.606Z" fill="#439DF0"/>
<path d="M208.326 113.874C204.065 113.874 200.578 117.361 200.578 121.623C200.578 125.884 204.065 129.371 208.326 129.371C212.588 129.371 216.075 125.884 216.075 121.623C216.075 117.361 212.588 113.874 208.326 113.874Z" fill="#439DF0"/>
<path d="M248.23 13.1456H0.282227V24.3808H248.23V13.1456Z" fill="#439DF0"/>
<path d="M248.23 202.206H0.282227V213.441H248.23V202.206Z" fill="#439DF0"/>
<path d="M96.7492 146.03L90.9379 151.454L85.514 146.03L81.2524 149.904L87.0637 155.328L81.2524 161.139L85.514 165.014L90.9379 159.59L96.7492 165.014L100.623 161.139L95.1995 155.328L100.623 149.904L96.7492 146.03Z" fill="#FDFFFC"/>
<path d="M176.17 142.156L170.359 147.58L164.935 142.156L161.061 146.03L166.485 151.841L161.061 157.265L164.935 161.14L170.359 155.716L176.17 161.14L180.045 157.265L174.621 151.841L180.045 146.03L176.17 142.156Z" fill="#FDFFFC"/>
<path d="M161.061 104.577L166.872 98.7653L172.296 104.577L176.171 100.315L170.747 94.8911L176.171 89.4673L172.296 85.2057L166.872 91.017L161.061 85.2057L157.187 89.4673L162.611 94.8911L157.187 100.315L161.061 104.577Z" fill="#FDFFFC"/>
<path d="M206.388 176.249L202.514 172.375L197.09 177.799L191.279 172.375L187.405 176.249L192.829 182.06L187.405 187.484L191.279 191.746L197.09 185.934L202.514 191.746L206.388 187.484L200.964 182.06L206.388 176.249Z" fill="#FDFFFC"/>
<path d="M115.345 85.2057L109.921 91.017L104.497 85.2057L100.236 89.4673L106.047 94.8911L100.236 100.315L104.497 104.577L109.921 98.7653L115.345 104.577L119.607 100.315L113.795 94.8911L119.607 89.4673L115.345 85.2057Z" fill="#FDFFFC"/>
<path d="M39.7983 62.7352L34.3744 68.1591L28.5631 62.7352L24.689 66.6094L30.1128 72.0333L24.689 77.8445L28.5631 81.7187L34.3744 76.2949L39.7983 81.7187L43.6725 77.8445L38.2486 72.0333L43.6725 66.6094L39.7983 62.7352Z" fill="#FDFFFC"/>
<path d="M191.666 40.6523L174.62 57.6987L168.033 51.1126C166.871 49.9504 165.322 49.9504 164.159 51.1126C162.997 52.2749 162.997 54.212 164.159 54.9868L172.682 63.51C173.07 63.8974 173.845 64.2848 174.62 64.2848C175.394 64.2848 176.169 63.8974 176.557 63.51L195.54 44.5265C196.702 43.3643 196.702 41.4272 195.54 40.6523C194.765 39.4901 192.828 39.4901 191.666 40.6523Z" fill="#F2EDF0"/>
<path d="M17.3284 24.3807H11.5171V202.206H17.3284V24.3807Z" fill="#F2EDF0"/>
<path d="M124.255 0.748413C122.706 0.748413 121.543 1.91067 121.543 3.46034V12.7584H127.355V3.46034C126.967 1.91067 125.805 0.748413 124.255 0.748413Z" fill="#F2EDF0"/>
<path d="M121.543 245.984C121.543 247.534 122.705 248.696 124.255 248.696C125.805 248.696 126.967 247.534 126.967 245.984V213.828H121.156V245.984H121.543Z" fill="#F2EDF0"/>
<path d="M53.3587 244.822C52.5838 246.372 53.3587 247.921 54.9083 248.696C56.458 249.471 58.0077 248.696 58.7825 247.146L73.8918 213.828H67.6931L53.3587 244.822Z" fill="#F2EDF0"/>
<path d="M181.207 213.828H174.621L189.73 247.146C190.117 248.309 191.28 248.696 192.442 248.696C192.829 248.696 193.217 248.696 193.604 248.309C195.154 247.534 195.541 245.984 195.154 244.435L181.207 213.828Z" fill="#F2EDF0"/>
<path d="M236.995 24.3809H231.184V202.206H236.995V24.3809Z" fill="#F2EDF0"/>
</svg>
