<svg width="852" height="852" viewBox="0 0 852 852" fill="none" xmlns="http://www.w3.org/2000/svg">
<path d="M28.1885 579.275L272.724 823.811C277.657 825.925 283.295 828.039 288.933 829.448L22.5508 563.066C23.9602 568.704 26.0744 573.637 28.1885 579.275Z" fill="#0BD0DB"/>
<path d="M7.75086 508.1L343.9 844.249C348.128 844.953 352.356 845.658 356.585 846.363L5.63672 495.415C6.34143 499.643 7.04615 503.872 7.75086 508.1Z" fill="#0BD0DB"/>
<path d="M0.704714 449.608L402.392 851.295C405.915 851.295 409.439 851.295 412.963 852L0 439.037C-3.08041e-07 442.561 -6.16081e-07 446.084 0.704714 449.608Z" fill="#0BD0DB"/>
<path d="M0.703124 399.574L452.425 851.296C455.244 851.296 458.768 850.591 461.586 850.591L1.40784 389.708C0.703125 393.231 0.703124 396.05 0.703124 399.574Z" fill="#0BD0DB"/>
<path d="M7.75318 345.311C7.04846 348.13 6.34375 350.949 6.34375 353.768L498.234 845.658C498.939 845.658 498.939 845.658 499.644 845.658L503.872 841.43L7.75318 345.311Z" fill="#0BD0DB"/>
<path d="M529.239 816.059L17.6161 304.436C16.9114 307.255 16.2067 309.369 15.502 312.188L524.306 820.992L529.239 816.059Z" fill="#0BD0DB"/>
<path d="M554.611 790.69L30.3032 267.087C29.5985 269.202 28.1891 272.02 27.4844 274.135L548.973 795.623L554.611 790.69Z" fill="#0BD0DB"/>
<path d="M579.981 765.32L46.5119 231.852C45.1024 233.966 44.3977 236.08 42.9883 238.899L574.343 770.253L579.981 765.32Z" fill="#0BD0DB"/>
<path d="M605.35 739.95L64.8338 199.434C63.4243 201.548 62.0149 203.662 60.6055 205.777L599.712 744.883L605.35 739.95Z" fill="#0BD0DB"/>
<path d="M630.718 714.582L85.2693 169.837C83.8599 171.952 82.4504 174.066 81.041 175.475L625.081 719.515L630.718 714.582Z" fill="#0BD0DB"/>
<path d="M656.09 689.21L108.527 141.647C107.117 143.761 105.003 145.171 103.594 147.285L650.452 694.143L656.09 689.21Z" fill="#0BD0DB"/>
<path d="M681.459 663.841L133.191 116.277C131.781 117.687 129.667 119.801 128.258 121.21L675.821 668.774L681.459 663.841Z" fill="#0BD0DB"/>
<path d="M706.827 638.471L160.673 92.3174C158.559 93.7268 157.149 95.1362 155.035 96.5457L701.189 642.7L706.827 638.471Z" fill="#0BD0DB"/>
<path d="M732.2 613.101L190.274 71.1753C188.16 72.5847 186.046 73.9941 183.932 75.4036L726.562 618.034L732.2 613.101Z" fill="#0BD0DB"/>
<path d="M757.566 587.731L221.983 52.1479C219.869 53.5574 217.755 54.2621 215.641 55.6715L752.633 592.664L757.566 587.731Z" fill="#0BD0DB"/>
<path d="M782.941 562.362L255.815 35.2358C253.701 35.9406 250.882 37.35 248.768 38.0547L778.008 567.295L782.941 562.362Z" fill="#0BD0DB"/>
<path d="M808.308 536.993L292.457 21.1421C289.638 21.8468 287.524 22.5515 284.705 23.9609L802.67 541.926L808.308 536.993Z" fill="#0BD0DB"/>
<path d="M833.676 511.622L331.919 10.5698C329.101 11.2745 326.282 11.9793 323.463 12.684L828.038 517.26L833.676 511.622Z" fill="#0BD0DB"/>
<path d="M848.476 476.387L375.612 2.81836C372.794 3.52307 369.27 3.52307 366.451 4.22779L847.771 485.548C847.771 482.024 848.476 479.205 848.476 476.387Z" fill="#0BD0DB"/>
<path d="M852 428.466L423.534 8.62512e-07C420.01 5.54472e-07 417.192 3.08041e-07 413.668 0L852 438.332C852 434.809 852 431.99 852 428.466Z" fill="#0BD0DB"/>
<path d="M848.478 374.908L477.094 2.81861C473.57 2.11389 469.342 2.11389 465.818 1.40918L849.888 385.479C849.888 381.955 849.183 378.431 848.478 374.908Z" fill="#0BD0DB"/>
<path d="M836.498 311.485L540.518 15.505C535.585 14.0956 531.357 13.3909 526.424 11.9814L839.317 324.875C838.612 320.646 837.203 315.713 836.498 311.485Z" fill="#0BD0DB"/>
<path d="M802.673 226.917L625.085 49.3294C618.743 45.8058 611.696 42.2822 604.648 39.4634L812.539 247.354C809.016 240.307 806.197 233.26 802.673 226.917Z" fill="#0BD0DB"/>
</svg>
